<svg width="53" height="53" viewBox="0 0 53 53" fill="none" xmlns="http://www.w3.org/2000/svg">
<path d="M52.5683 14.6992C52.4164 14.4834 52.2149 14.3073 51.9807 14.1857C51.7465 14.0641 51.4866 14.0005 51.2227 14.0004H16.0721L13.4114 4.82475C12.3679 1.21164 9.88846 0.821594 8.87152 0.821594H1.77697C0.867638 0.821594 0.132263 1.5578 0.132263 2.46625C0.132263 3.3747 0.868466 4.11086 1.77692 4.11086H8.87064C9.09506 4.11086 9.77992 4.11086 10.247 5.72487L19.4003 39.3641C19.5991 40.0738 20.2458 40.564 20.9836 40.564H43.3413C44.0354 40.564 44.6547 40.1293 44.8892 39.4759L52.7696 16.2014C52.951 15.6971 52.8756 15.1356 52.5684 14.6992H52.5683ZM42.1839 37.2757H22.232L16.9966 17.2905H48.8843L42.1839 37.2757ZM38.922 43.8973C36.6347 43.8973 34.7814 45.7507 34.7814 48.038C34.7814 50.3252 36.6347 52.1786 38.922 52.1786C41.2093 52.1786 43.0626 50.3252 43.0626 48.038C43.0626 45.7507 41.2093 43.8973 38.922 43.8973ZM24.0158 43.8973C21.7285 43.8973 19.8751 45.7507 19.8751 48.038C19.8751 50.3252 21.7285 52.1786 24.0158 52.1786C26.303 52.1786 28.1564 50.3252 28.1564 48.038C28.1564 45.7507 26.303 43.8973 24.0158 43.8973Z" fill="#737576"/>
</svg>
