<svg width="64" height="66" viewBox="0 0 64 66" fill="none" xmlns="http://www.w3.org/2000/svg">
<path d="M32 0.433655C14 0.433655 0 15.2337 0 34.2622C0 56.4622 19 65.9765 22 65.9765C24 65.9765 24 64.9194 24 63.8622V58.5765C17 60.6908 14 56.4622 13 53.2908C13 53.2908 13 52.2337 11 50.1194C10 49.0622 6 46.948 10 46.948C13 46.948 15 51.1765 15 51.1765C18 55.4051 22 54.348 24 53.2908C24 51.1765 26 49.0622 26 49.0622C18 48.0051 12 44.8337 12 33.2051C12 28.9765 13 25.8051 15 23.6908C15 23.6908 13 19.4622 15 14.1765C15 14.1765 20 14.1765 24 18.4051C27 16.2908 37 16.2908 40 18.4051C44 14.1765 49 14.1765 49 14.1765C51 21.5765 49 23.6908 49 23.6908C51 25.8051 52 28.9765 52 33.2051C52 44.8337 45 48.0051 38 49.0622C39 50.1194 40 52.2337 40 55.4051V63.8622C40 64.9194 40 65.9765 42 65.9765C45 65.9765 64 56.4622 64 34.2622C64 15.2337 50 0.433655 32 0.433655Z" fill="white"/>
</svg>
